<svg width="600" height="400" viewBox="0 0 60 40" fill="none" xmlns="http://www.w3.org/2000/svg">
<path fill-rule="evenodd" clip-rule="evenodd" d="M53.0352 0L27.4316 3.64648L26.6582 6.71094L25.8906 3.64648L0 0L8.30469 12.6484L10.0703 12.8965L14.3828 20.1211L18.3926 20.4707L26.6016 40L34.9414 20.4707L39.3887 19.998L43.45 12.5L45.2 12.2ZM26.6055 23.1914L22.5801 7.17383L7.64062 4.48047L10.6309 9.12695L19.377 10.3457L20.3047 13.3711L14.4805 12.7441L16.7266 16.498L21.3887 16.9043L26.6055 32.7578L31.8184 16.9043L36.4863 16.498L38.7266 12.7441L32.9062 13.3711L33.8301 10.3457L42.5762 9.12695L45.5723 4.48047L30.627 7.17383L26.6055 23.1914Z" fill="#FFFFFF"/>
</svg>
