<?xml version="1.0"?>
<svg xmlns="http://www.w3.org/2000/svg" viewBox="0 0 512 512" width="512px" height="512px"><g><path class="active-path" d="m 256 0 c -141.363 0 -256 114.637 -256 256 s 114.637 256 256 256 s 256 -114.637 256 -256 s -114.637 -256 -256 -256 Z m -74.3906 387 h -62.3477 v -187.574 h 62.3477 Z m -31.1719 -213.188 h -0.40625 c -20.9219 0 -34.4531 -14.4023 -34.4531 -32.4023 c 0 -18.4063 13.9453 -32.4102 35.2734 -32.4102 c 21.3281 0 34.4531 14.0039 34.8594 32.4102 c 0 18 -13.5313 32.4023 -35.2734 32.4023 Z m 255.984 213.188 h -62.3398 v -100.348 c 0 -25.2188 -9.02734 -42.418 -31.5859 -42.418 c -17.2227 0 -27.4805 11.6016 -31.9883 22.8008 c -1.64844 4.00781 -2.05078 9.60938 -2.05078 15.2148 v 104.75 h -62.3438 s 0.816407 -169.977 0 -187.574 h 62.3438 v 26.5586 c 8.28516 -12.7813 23.1094 -30.9609 56.1875 -30.9609 c 41.0195 0 71.7773 26.8086 71.7773 84.4219 Z m 0 0" data-original="#000000" data-old_color="#HTTPS:" fill="#FFFFFF"/></g> </svg>
