<?xml version="1.0"?>
<svg width="350" height="350" xmlns="http://www.w3.org/2000/svg" xmlns:svg="http://www.w3.org/2000/svg">
 <!-- Created with SVG-edit - https://github.com/SVG-Edit/svgedit-->
 <defs>
  <linearGradient id="svg_22" spreadMethod="pad" x1="0" x2="1" y1="0" y2="1">
   <stop offset="0" stop-color="#f9e500" stop-opacity="0.992188"/>
   <stop offset="1" stop-color="#b70900" stop-opacity="0.984375"/>
  </linearGradient>
 </defs>
 <g class="layer">
  <title>Layer 1</title>
  <path d="m142.5,73.899994c-10,-15 -73,-19 -99,13c-26,32 -11,108 26,149c37,41 115,69 108,61c-7,-8 59,-26 85,-62c26,-36 38,-109 20,-140c-18,-31 -51,-51 -110,-32l-30,11z" fill="url(#svg_22)" id="svg_10" stroke="#d66700" stroke-dasharray="null" stroke-linecap="null" stroke-linejoin="null" stroke-width="5"/>
  <ellipse cx="176.5" cy="328.899994" fill="#fff5af" id="svg_12" rx="172" ry="20" stroke="#000000" stroke-dasharray="null" stroke-linecap="null" stroke-linejoin="null" stroke-opacity="0" stroke-width="5"/>
  <path d="m150.928991,22.358191l29.071012,-4.358192c-15.316985,7.011014 -18.4429,46.676903 -21.256224,49.266559c-2.813324,2.589656 -7.189605,1.831702 -13.128844,6.947848c-5.939239,5.116147 0.937775,-44.908367 5.314056,-51.856215z" fill="#9b5209" id="svg_16" stroke="#5b4501" stroke-dasharray="null" stroke-linecap="null" stroke-linejoin="null" stroke-width="5"/>
  <path d="m163.499998,58.899424c0,0 8.14557,-38.120731 67.879746,-47.650914c59.734177,-9.530183 75.120253,7.624146 75.120253,8.259492c0,0.635346 -31.677215,20.966402 -62.449367,29.861239c-30.772152,8.894837 -80.550632,9.530183 -80.550632,9.530183z" fill="#00bf00" id="svg_17" stroke="#007f00" stroke-dasharray="null" stroke-linecap="null" stroke-linejoin="null" stroke-width="5"/>
 </g>
</svg>